<?xml version="1.0" encoding="UTF-8"?>
<svg id="Layer_2" data-name="Layer 2" xmlns="http://www.w3.org/2000/svg" viewBox="0 0 323.94 93.76">
  <defs>
    <style>
      .cls-1 {
        fill: #fff;
      }

      .cls-2 {
        fill: #c60000;
      }
    </style>
  </defs>
  <g id="Layer_1-2" data-name="Layer 1">
    <rect class="cls-1" width="323.94" height="93.76"/>
    <g>
      <g>
        <path class="cls-2" d="m127.63,68.23V31.13h14.2c2.23,0,4.21.43,5.96,1.3,1.75.87,3.14,2.09,4.16,3.68,1.02,1.59,1.54,3.52,1.54,5.78v.69c0,2.23-.52,4.14-1.56,5.75-1.04,1.61-2.45,2.84-4.21,3.68-1.77.85-3.73,1.27-5.88,1.27h-9.75v14.94h-4.45Zm4.45-18.97h9.27c2.37,0,4.24-.59,5.62-1.77,1.38-1.18,2.07-2.85,2.07-5.01v-.53c0-2.15-.68-3.82-2.04-5.01-1.36-1.18-3.24-1.78-5.64-1.78h-9.27v14.1Z"/>
        <path class="cls-2" d="m159.43,38.28c-.92,0-1.69-.3-2.31-.9-.62-.6-.93-1.36-.93-2.28s.31-1.73.93-2.33c.62-.6,1.39-.9,2.31-.9s1.68.3,2.28.9c.6.6.9,1.38.9,2.33s-.3,1.68-.9,2.28c-.6.6-1.36.9-2.28.9Zm-2.12,29.94v-25.92h4.19v25.92h-4.19Z"/>
        <path class="cls-2" d="m175.02,68.97c-1.8,0-3.44-.32-4.93-.95-1.48-.64-2.65-1.55-3.5-2.76-.85-1.2-1.27-2.67-1.27-4.4s.42-3.22,1.27-4.37c.85-1.15,2.01-2.01,3.5-2.6s3.14-.87,4.98-.87h8.74v-1.91c0-1.84-.54-3.29-1.62-4.35-1.08-1.06-2.68-1.59-4.8-1.59s-3.71.5-4.88,1.51c-1.17,1.01-1.96,2.36-2.39,4.05l-3.92-1.27c.42-1.45,1.09-2.76,2.01-3.95.92-1.18,2.15-2.14,3.68-2.86,1.54-.72,3.38-1.09,5.54-1.09,3.32,0,5.9.86,7.74,2.57,1.84,1.71,2.76,4.13,2.76,7.23v11.71c0,1.06.49,1.59,1.48,1.59h2.38v3.55h-3.66c-1.17,0-2.1-.33-2.81-.98-.71-.65-1.06-1.53-1.06-2.62v-.27h-.64c-.39.67-.91,1.37-1.56,2.09-.65.72-1.55,1.32-2.68,1.8-1.13.48-2.6.72-4.4.72Zm.48-3.6c2.47,0,4.48-.73,6.02-2.2,1.54-1.47,2.31-3.52,2.31-6.17v-.58h-8.59c-1.66,0-3.03.36-4.11,1.09-1.08.72-1.62,1.81-1.62,3.26s.56,2.58,1.67,3.39c1.11.81,2.55,1.22,4.32,1.22Z"/>
        <path class="cls-2" d="m194.53,68.23v-5.41l16.48-16.27v-.58h-15.95v-3.66h20.35v5.41l-16.53,16.27v.64h16.96v3.6h-21.3Z"/>
        <path class="cls-2" d="m218.55,68.23v-5.41l16.48-16.27v-.58h-15.95v-3.66h20.35v5.41l-16.53,16.27v.64h16.96v3.6h-21.3Z"/>
        <path class="cls-2" d="m252.26,68.97c-1.8,0-3.44-.32-4.93-.95-1.48-.64-2.65-1.55-3.5-2.76-.85-1.2-1.27-2.67-1.27-4.4s.42-3.22,1.27-4.37c.85-1.15,2.01-2.01,3.5-2.6s3.14-.87,4.98-.87h8.74v-1.91c0-1.84-.54-3.29-1.62-4.35-1.08-1.06-2.68-1.59-4.8-1.59s-3.71.5-4.88,1.51c-1.17,1.01-1.96,2.36-2.39,4.05l-3.92-1.27c.42-1.45,1.09-2.76,2.01-3.95.92-1.18,2.15-2.14,3.68-2.86,1.54-.72,3.38-1.09,5.54-1.09,3.32,0,5.9.86,7.74,2.57,1.84,1.71,2.76,4.13,2.76,7.23v11.71c0,1.06.49,1.59,1.48,1.59h2.38v3.55h-3.66c-1.17,0-2.1-.33-2.81-.98-.71-.65-1.06-1.53-1.06-2.62v-.27h-.64c-.39.67-.91,1.37-1.56,2.09-.65.72-1.55,1.32-2.68,1.8-1.13.48-2.6.72-4.4.72Zm.48-3.6c2.47,0,4.48-.73,6.02-2.2,1.54-1.47,2.31-3.52,2.31-6.17v-.58h-8.59c-1.66,0-3.03.36-4.11,1.09-1.08.72-1.62,1.81-1.62,3.26s.56,2.58,1.67,3.39c1.11.81,2.55,1.22,4.32,1.22Z"/>
      </g>
      <g>
        <g>
          <polygon class="cls-2" points="72.65 34.73 92.62 43.33 80.78 53.07 102.01 65.51 68.32 56.28 83.87 43.49 72.65 34.73"/>
          <polygon class="cls-2" points="90.1 32.16 111.51 39.59 99.66 49.33 120.89 61.77 87.21 52.54 102.75 39.75 90.1 32.16"/>
        </g>
        <g>
          <circle class="cls-2" cx="61.89" cy="31.8" r="7.01"/>
          <path class="cls-2" d="m72.43,42.55s-9.89-4.34-9.35-7.74c.38-2.38-6.22,1.89-6.22,1.89,0,0,3.07,4.89,15.57,5.84Z"/>
        </g>
      </g>
    </g>
  </g>
</svg>